# xmcd
#
# Track frame offsets:
# 150
# 18137
# 34840
# 49754
# 63941
# 85770
# 103974
# 120954
# 136027
# 152131
#
# Disc length: 2208 seconds
#
# Revision: 0
# Processed by: cddbd v1.4PL0 Copyright (c) Steve Scherf et al.
# Submitted via: Audion 3.0.2 (http://www.panic.com/audion/)
#
DISCID=73089e0a
DTITLE=Margaret Menezes - Un canto pra subir
DYEAR=1900
DGENRE=
TTITLE0=marmelada
TTITLE1=negro menino
TTITLE2=negra melodía
TTITLE3=co-brador
TTITLE4=dark secrets
TTITLE5=ifá, un canto pra subir
TTITLE6=hino das águas
TTITLE7=maravilha morena
TTITLE8=tudo à-toa
TTITLE9=abra a boca e feche os olhos
EXTD=
EXTT0=
EXTT1=
EXTT2=
EXTT3=
EXTT4=
EXTT5=
EXTT6=
EXTT7=
EXTT8=
EXTT9=
PLAYORDER=
